<svg id="Artboard_21" data-name="Artboard 21" xmlns="http://www.w3.org/2000/svg" width="175.299" height="53.083" viewBox="0 0 175.299 53.083">
  <g id="Group_2" data-name="Group 2">
    <path id="Path_8" data-name="Path 8" d="M98.456,130.879h-.028a76.59,76.59,0,0,1-8.732-1.595.271.271,0,0,1-.207-.276c0-.156.23-3.879,1.314-5.69a3.389,3.389,0,0,1,2.027-1.273.267.267,0,0,1,.335.179.276.276,0,0,1-.184.34,2.9,2.9,0,0,0-1.714,1.034c-.873,1.452-1.158,4.385-1.223,5.216a77.133,77.133,0,0,0,8.461,1.526.271.271,0,0,1-.032.538Z" transform="translate(-80.858 -83.182)" fill="#fff"/>
    <path id="Path_9" data-name="Path 9" d="M94.685,91.587a.271.271,0,0,1-.267-.271V86.49a.919.919,0,0,1,.85-.97h.7a.754.754,0,0,1,.726.809V87.74a.271.271,0,1,1-.538,0V86.329c0-.165-.074-.267-.188-.267h-.7c-.179,0-.313.179-.313.427v4.826a.271.271,0,0,1-.276.271Z" transform="translate(-83.521 -63.45)" fill="#fff"/>
    <path id="Path_10" data-name="Path 10" d="M116.307,81.037h-.234a.317.317,0,1,1,0-.63h.285a.317.317,0,1,1,0,.634Z" transform="translate(-95.032 -60.686)" fill="#fff"/>
    <path id="Path_11" data-name="Path 11" d="M94.865,88.769a.3.3,0,0,1-.138-.032.313.313,0,0,1-.156-.4c.211-.515.377-.919.506-1.241A9.243,9.243,0,0,1,96.2,84.848l.032-.046h0a9.431,9.431,0,0,1,2.224-2.422,11.223,11.223,0,0,1,12.735,0,10.04,10.04,0,0,1,3.516,6.071c.023.138-.138-.06-.29,0a.313.313,0,0,1-.372-.165c0-.028-1.549-2.886-9.27-2.987a15.1,15.1,0,0,0-7.565,1.526,5.34,5.34,0,0,0-2.073,1.792A.313.313,0,0,1,94.865,88.769Zm1.9-3.622-.028.041A7.77,7.77,0,0,0,95.817,87c1.356-1.071,4.04-2.408,8.99-2.344,5.207.064,7.744,1.351,8.916,2.3a8.627,8.627,0,0,0-2.886-4.077,10.6,10.6,0,0,0-11.949,0,8.732,8.732,0,0,0-2.077,2.261Z" transform="translate(-83.591 -60.683)" fill="#fff"/>
    <path id="Path_12" data-name="Path 12" d="M112.876,94.049c-1.746-.763-5.731-.919-6.159-.919s-4.412.156-6.154.919c-1.838.809-2.362,1.535-2.376,2.477s-.391,5.244,1.632,6.287c2.6,1.337,6.241,1.227,6.862,1.255h.074c1.756-.087,4.817-.244,6.784-1.213,2.041-1.007,1.733-5.4,1.714-6.352S114.719,94.858,112.876,94.049Z" transform="translate(-85.539 -67.563)" fill="#fff"/>
    <path id="Path_13" data-name="Path 13" d="M115.019,94.569c0-1.181-.63-2.064-2.8-3.07-2.05-.956-6.733-1.158-7.239-1.149s-5.184.193-7.234,1.149c-2.169.988-2.79,1.907-2.79,3.093s-.46,6.554,1.921,7.854c3.056,1.673,7.354,1.535,8.066,1.572h.087c2.064-.11,5.662-.3,7.974-1.517C115.4,101.242,115.038,95.75,115.019,94.569Zm-2.427,7.606c-2.188,1.14-5.6,1.324-7.56,1.425h-.083c-.694-.037-4.748.1-7.648-1.48-2.257-1.223-1.838-6.273-1.838-7.386s.593-1.962,2.647-2.914c1.944-.919,6.384-1.085,6.862-1.08s4.918.184,6.862,1.08c2.059.951,2.638,1.779,2.656,2.891S114.868,100.989,112.593,102.175Z" transform="translate(-83.794 -66.06)" fill="#fff"/>
    <path id="Path_14" data-name="Path 14" d="M94.685,91.587a.271.271,0,0,1-.267-.271V86.49a.919.919,0,0,1,.85-.97h.7a.754.754,0,0,1,.726.809V87.74a.271.271,0,1,1-.538,0V86.329c0-.165-.074-.267-.188-.267h-.7c-.179,0-.313.179-.313.427v4.826a.271.271,0,0,1-.276.271Z" transform="translate(-83.521 -63.45)" fill="#fff"/>
    <path id="Path_15" data-name="Path 15" d="M93.929,105.33H93.86c-2.252-.607-2.519-1.558-2.542-1.668a.232.232,0,0,1,0-.055V99.3c0-1.236,1.838-1.494,1.93-1.5a.27.27,0,0,1,.308.271s0,2.372-.037,3.153a11.793,11.793,0,0,0,.676,3.75.276.276,0,0,1-.055.276A.262.262,0,0,1,93.929,105.33Zm-2.077-1.774c.041.1.326.639,1.659,1.094a11.95,11.95,0,0,1-.542-3.447c0-.6.028-2.133.032-2.813-.427.106-1.149.368-1.149.919Z" transform="translate(-81.846 -70.084)" fill="#fff"/>
    <path id="Path_16" data-name="Path 16" d="M108.623,130.35a.272.272,0,1,1-.032-.542,76.217,76.217,0,0,0,8.3-1.507,21.824,21.824,0,0,0-1.167-5.249,2.488,2.488,0,0,0-1.636-1.108,12.683,12.683,0,0,0-3.259-.3c-1.678.087-10.787,0-11.361,0a24.291,24.291,0,0,0-2.817.418.276.276,0,0,1-.345-.17.262.262,0,0,1,.165-.34,24.82,24.82,0,0,1,2.96-.46h.028c.1,0,9.652.1,11.343,0a13.066,13.066,0,0,1,3.424.322h0a2.922,2.922,0,0,1,1.976,1.406,23.69,23.69,0,0,1,1.241,5.648.271.271,0,0,1-.2.29,77.392,77.392,0,0,1-8.6,1.576Z" transform="translate(-84.531 -82.667)" fill="#fff"/>
    <path id="Path_17" data-name="Path 17" d="M94.224,113h0a6.825,6.825,0,0,0,.4,2.8,5.976,5.976,0,0,0,4.766,4.136.409.409,0,0,1-.083.809H99.22a6.758,6.758,0,0,1-5.386-4.7,8.485,8.485,0,0,1-.409-3.415" transform="translate(-82.968 -78.101)" fill="#fff"/>
    <path id="Path_18" data-name="Path 18" d="M96.678,83.994a.271.271,0,0,1-.271-.271V82a.271.271,0,1,1,.538,0v1.723a.271.271,0,0,1-.267.271Z" transform="translate(-84.596 -61.382)" fill="#fff"/>
    <ellipse id="Ellipse_1" data-name="Ellipse 1" cx="0.676" cy="0.676" rx="0.676" ry="0.676" transform="translate(11.426 19.551)" fill="#fff"/>
    <path id="Path_19" data-name="Path 19" d="M95.887,81.344a.947.947,0,1,1,.947-.947A.947.947,0,0,1,95.887,81.344Zm0-1.356a.409.409,0,1,0,.366.407A.409.409,0,0,0,95.887,79.988Z" transform="translate(-83.804 -60.17)" fill="#fff"/>
    <path id="Path_20" data-name="Path 20" d="M113.162,118.919a24.818,24.818,0,0,1-6.094.584,25.209,25.209,0,0,1-6.1-.584.882.882,0,0,1-.8-.763s.294-.593-.556-1.177c-.322-.216,1.632.46,2.073.46a39.417,39.417,0,0,0,5.239.657c1.581-.078,6.177-.671,6.177-.671.46,0,2.137-.46,1.792-.262-.873.432-.919.919-.919.919A.892.892,0,0,1,113.162,118.919Z" transform="translate(-86.307 -80.428)" fill="#fff"/>
    <path id="Path_21" data-name="Path 21" d="M114.583,120.81a1.039,1.039,0,0,1-.726.97,22.2,22.2,0,0,1-5.515.529,22.435,22.435,0,0,1-5.515-.529,1.043,1.043,0,0,1-.726-.919" transform="translate(-87.673 -82.521)" fill="#fff"/>
    <path id="Path_22" data-name="Path 22" d="M132.965,102.325l-.441-.294,11.063-16.817H130.35V84.69h14.215Z" transform="translate(-102.94 -63.002)" fill="#fff"/>
    <path id="Path_23" data-name="Path 23" d="M82.31,102.325,70.71,84.69H85.826l-.29.524H71.689l11.058,16.817Z" transform="translate(-70.71 -63.002)" fill="#fff"/>
    <path id="Path_24" data-name="Path 24" d="M100.11,58.466h14.459L107.275,47.56Z" transform="translate(-86.598 -42.936)" fill="#fff"/>
    <path id="Path_25" data-name="Path 25" d="M113.74,55.553H89.79L101.661,37.5Zm-22.934-.542h21.927L101.675,38.465Z" transform="translate(-81.021 -37.5)" fill="#fff"/>
    <ellipse id="Ellipse_2" data-name="Ellipse 2" cx="1.19" cy="1.19" rx="1.19" ry="1.19" transform="translate(15.373 41.134)" fill="#fff"/>
    <path id="Path_26" data-name="Path 26" d="M111.212,145.921,107.43,139.9l.565.064c1.112.133,2.128.188,3.024.211h.349c.919-.023,1.995-.074,3.171-.216l.57-.051Zm-2.758-5.354,2.758,4.362,2.831-4.375c-.809.087-1.558.115-2.247.143H110.56c-.639-.018-1.337-.041-2.082-.12Z" transform="translate(-90.554 -92.837)" fill="#fff"/>
  </g>
  <path id="Path_42" data-name="Path 42" d="M11.407-18.652a5.163,5.163,0,0,1,3.005.731,2.531,2.531,0,0,1,1.029,2.21,4.039,4.039,0,0,1-.257,1.479,2.618,2.618,0,0,1-.82,1.109,3.956,3.956,0,0,1-1.438.691,7.979,7.979,0,0,1-2.1.241H.816l2.137-2.764h8.132a1.583,1.583,0,0,0,.868-.185.674.674,0,0,0,.273-.6.654.654,0,0,0-.273-.595,1.642,1.642,0,0,0-.868-.177H5.236a6.349,6.349,0,0,1-1.8-.225,3.62,3.62,0,0,1-1.254-.627,2.469,2.469,0,0,1-.739-.972A3.21,3.21,0,0,1,1.2-19.6a3.454,3.454,0,0,1,.265-1.374,2.646,2.646,0,0,1,.82-1.053,4.036,4.036,0,0,1,1.43-.675,7.979,7.979,0,0,1,2.1-.241h9.337l-2.137,2.8H5.557a1.787,1.787,0,0,0-.86.161.609.609,0,0,0-.281.579.628.628,0,0,0,.281.587,1.714,1.714,0,0,0,.86.169Zm19.7-.257a3.7,3.7,0,0,1-.354,1.631,3.4,3.4,0,0,1-1.037,1.246,5.171,5.171,0,0,1-1.663.8,7.9,7.9,0,0,1-2.234.289H20.2v2.748H16.887v-5.5h9.257a1.884,1.884,0,0,0,1.2-.337,1.09,1.09,0,0,0,.426-.9,1.068,1.068,0,0,0-.426-.892,1.917,1.917,0,0,0-1.2-.329H16.887l2.2-2.8h6.75a7.7,7.7,0,0,1,2.234.3,5,5,0,0,1,1.655.828,3.549,3.549,0,0,1,1.029,1.27A3.75,3.75,0,0,1,31.11-18.909Zm3.7,6.718,2.009-2.764h3.7q.522,0,.908.032-.225-.289-.522-.731t-.571-.828l-1.929-2.845L33.36-12.191H29.423l6.895-9.723a3.718,3.718,0,0,1,.852-.836,2.175,2.175,0,0,1,1.3-.37,2.187,2.187,0,0,1,1.262.346,3.281,3.281,0,0,1,.86.86l6.718,9.723Zm25.714-2.764-2.137,2.764h-5.4a7.755,7.755,0,0,1-2.587-.418,6.4,6.4,0,0,1-2.049-1.149A5.319,5.319,0,0,1,47-15.494a4.9,4.9,0,0,1-.49-2.178A4.7,4.7,0,0,1,47-19.817a5.083,5.083,0,0,1,1.35-1.671A6.169,6.169,0,0,1,50.4-22.566a8.508,8.508,0,0,1,2.587-.378h7.537l-2.137,2.8h-5.4a3.941,3.941,0,0,0-1.254.193,3.067,3.067,0,0,0-1,.538,2.533,2.533,0,0,0-.659.828,2.338,2.338,0,0,0-.241,1.061,2.354,2.354,0,0,0,.233,1.053,2.346,2.346,0,0,0,.659.812,3.136,3.136,0,0,0,1,.522,4.1,4.1,0,0,0,1.254.185Zm13.645,0-2.137,2.764H61.678V-22.943H74.133l-2.154,2.8H65.021v1.286h8.518l-1.912,2.443H65.021v1.462Zm8.566-3.986q.354.627.619,1.1t.466.844q.2.37.354.675l.3.595q.129-.289.281-.587t.354-.675q.2-.378.466-.844t.619-1.093l1.72-3.054a2.5,2.5,0,0,1,.731-.828,1.856,1.856,0,0,1,1.1-.313,1.9,1.9,0,0,1,1.133.362,2.024,2.024,0,0,1,.731,1.117l2.716,9.45H91.008L90-15.936q-.257-.916-.434-1.607t-.305-1.35q-.273.562-.611,1.246t-.884,1.728l-1.446,2.7a2.892,2.892,0,0,1-.426.635,1.9,1.9,0,0,1-.442.362,1.4,1.4,0,0,1-.482.169,3.654,3.654,0,0,1-.562.04,3.654,3.654,0,0,1-.562-.04,1.4,1.4,0,0,1-.482-.169,1.9,1.9,0,0,1-.442-.362,2.892,2.892,0,0,1-.426-.635l-1.446-2.716q-.289-.546-.514-.98t-.41-.779q-.185-.346-.321-.635l-.265-.562q-.129.643-.305,1.342t-.418,1.615L77.8-12.191H74.535l2.78-9.45a2.006,2.006,0,0,1,.739-1.117A1.939,1.939,0,0,1,79.2-23.12a1.862,1.862,0,0,1,1.085.305,2.374,2.374,0,0,1,.731.836Zm17.357,6.75,2.009-2.764h3.7q.522,0,.908.032-.225-.289-.522-.731t-.571-.828l-1.929-2.845-5.046,7.136H94.7l6.895-9.723a3.718,3.718,0,0,1,.852-.836,2.175,2.175,0,0,1,1.3-.37,2.187,2.187,0,0,1,1.262.346,3.281,3.281,0,0,1,.86.86l6.718,9.723Zm24.589.177a2,2,0,0,1-.635-.1,1.987,1.987,0,0,1-.7-.474l-6.589-5.914v6.316h-3.021v-8.92a2.485,2.485,0,0,1,.153-.916,1.757,1.757,0,0,1,.4-.627,1.535,1.535,0,0,1,.579-.354,2.1,2.1,0,0,1,.683-.112,1.948,1.948,0,0,1,.619.1,2.125,2.125,0,0,1,.715.474l6.589,5.914v-6.316h3.037v8.9a2.485,2.485,0,0,1-.153.916,1.842,1.842,0,0,1-.4.635,1.48,1.48,0,0,1-.587.362A2.172,2.172,0,0,1,124.678-12.015Z" transform="translate(48.789 44.109)" fill="#fff"/>
</svg>
