<svg id="Component_7_1" data-name="Component 7 – 1" xmlns="http://www.w3.org/2000/svg" width="279.64" height="31.966" viewBox="0 0 279.64 31.966">
  <g id="Group_17" data-name="Group 17" transform="translate(160.204 1.156)">
    <path id="Path_44" data-name="Path 44" d="M268.579-18.5a10.035,10.035,0,0,1-.959,4.426,9.219,9.219,0,0,1-2.813,3.379,14.032,14.032,0,0,1-4.513,2.18,21.432,21.432,0,0,1-6.061.785H238.971V-.268h-8.983V-15.181h25.117a5.113,5.113,0,0,0,3.249-.916,2.958,2.958,0,0,0,1.156-2.442,2.9,2.9,0,0,0-1.156-2.42,5.2,5.2,0,0,0-3.249-.894H229.988l5.974-7.587h18.315a20.889,20.889,0,0,1,6.061.807,13.559,13.559,0,0,1,4.491,2.246,9.629,9.629,0,0,1,2.791,3.445A10.177,10.177,0,0,1,268.579-18.5ZM278.609-.268l5.451-7.5h10.051q1.417,0,2.464.087-.611-.785-1.417-1.984t-1.548-2.246l-5.233-7.718L274.684-.268H264L282.708-26.65a10.085,10.085,0,0,1,2.311-2.268,5.9,5.9,0,0,1,3.532-1,5.934,5.934,0,0,1,3.423.938,8.9,8.9,0,0,1,2.333,2.333L312.534-.268ZM347.2-29.44,329.89-9.9V-.268h-9.07v-9.68L303.028-29.44h11.6L321.6-21.33q.349.392.916,1.025t1.177,1.33q.61.7,1.134,1.308t.741.916q.436-.61,1.265-1.657t2.4-2.965l6.628-8.067Z" transform="translate(-229.988 29.92)" fill="none" stroke="#fff" stroke-width="2"/>
  </g>
  <path id="Path_46" data-name="Path 46" d="M17.973-13.438A7.366,7.366,0,0,0,12.107-11.1,9.744,9.744,0,0,0,10.068-4.49,9.19,9.19,0,0,0,12.33,2.171a8.083,8.083,0,0,0,6.09,2.337,9.627,9.627,0,0,0,3.455-.547,23.732,23.732,0,0,0,2.709-1.243A4.937,4.937,0,0,1,25.9,4.384a5.108,5.108,0,0,1,.472,2.262A4.073,4.073,0,0,1,24.112,10.1q-2.262,1.417-6.885,1.417a20.316,20.316,0,0,1-6.264-.945,13.976,13.976,0,0,1-5.12-2.908A13.723,13.723,0,0,1,2.388,2.693,18.439,18.439,0,0,1,1.12-4.49a17.845,17.845,0,0,1,1.218-6.836,14.518,14.518,0,0,1,3.331-5A14.016,14.016,0,0,1,10.615-19.4a17.405,17.405,0,0,1,6.065-1.044,13.954,13.954,0,0,1,7.084,1.491,4.39,4.39,0,0,1,2.511,3.828,3.864,3.864,0,0,1-.646,2.237A5.32,5.32,0,0,1,24.137-11.4a16.141,16.141,0,0,0-2.759-1.442A8.991,8.991,0,0,0,17.973-13.438ZM54.711-1.358a14.972,14.972,0,0,1-.945,5.493,11.135,11.135,0,0,1-2.66,4.052,11.311,11.311,0,0,1-4.1,2.486,15.851,15.851,0,0,1-5.319.845,15.051,15.051,0,0,1-5.319-.895,11.706,11.706,0,0,1-4.1-2.56,11.422,11.422,0,0,1-2.66-4.052,14.484,14.484,0,0,1-.945-5.369,14.341,14.341,0,0,1,.945-5.319,11.422,11.422,0,0,1,2.66-4.052,11.706,11.706,0,0,1,4.1-2.56,15.052,15.052,0,0,1,5.319-.895,14.686,14.686,0,0,1,5.319.92,12.006,12.006,0,0,1,4.1,2.585,11.422,11.422,0,0,1,2.66,4.052A14.2,14.2,0,0,1,54.711-1.358Zm-17.4,0A7.858,7.858,0,0,0,38.479,3.29a3.791,3.791,0,0,0,3.256,1.616,3.647,3.647,0,0,0,3.206-1.641,8.147,8.147,0,0,0,1.119-4.623,7.887,7.887,0,0,0-1.143-4.6,3.727,3.727,0,0,0-3.231-1.616,3.727,3.727,0,0,0-3.231,1.616A7.887,7.887,0,0,0,37.311-1.358ZM71.066-11.848H58.837a6.436,6.436,0,0,1-.646-1.491,6.565,6.565,0,0,1-.3-1.989,3.761,3.761,0,0,1,.87-2.784,3.109,3.109,0,0,1,2.262-.845H79.567a5.854,5.854,0,0,1,2.187,4.772,5.741,5.741,0,0,1-.572,2.461,11.08,11.08,0,0,1-1.467,2.312L68.432,4.21H81.158A6.436,6.436,0,0,1,81.8,5.7a6.565,6.565,0,0,1,.3,1.989,3.761,3.761,0,0,1-.87,2.784,3.109,3.109,0,0,1-2.262.845H59.384A5.2,5.2,0,0,1,57.992,9.43,6.5,6.5,0,0,1,57.445,6.7a5.643,5.643,0,0,1,.646-2.535,12.779,12.779,0,0,1,1.541-2.386Zm26.447-1.989a14.246,14.246,0,0,1,4,.572,9.838,9.838,0,0,1,3.405,1.715,14.694,14.694,0,0,1,3.356-1.641,13.806,13.806,0,0,1,4.5-.646,13.954,13.954,0,0,1,3.7.5,9.456,9.456,0,0,1,3.231,1.566,7.566,7.566,0,0,1,2.262,2.834,9.9,9.9,0,0,1,.845,4.3v15.66a11.5,11.5,0,0,1-1.566.3,16.038,16.038,0,0,1-2.212.149,11.693,11.693,0,0,1-1.964-.149,3.345,3.345,0,0,1-1.467-.6,2.87,2.87,0,0,1-.92-1.218,5.274,5.274,0,0,1-.323-2.013V-4.391a2.6,2.6,0,0,0-.845-2.163,3.578,3.578,0,0,0-2.287-.671,3.976,3.976,0,0,0-1.491.323,4.288,4.288,0,0,0-1.193.671,1.541,1.541,0,0,1,.05.373V11.021a13.867,13.867,0,0,1-1.616.3,15.67,15.67,0,0,1-2.163.149,11.693,11.693,0,0,1-1.964-.149,3.345,3.345,0,0,1-1.467-.6,2.87,2.87,0,0,1-.92-1.218,5.274,5.274,0,0,1-.323-2.013V-4.391a2.5,2.5,0,0,0-.92-2.163,3.65,3.65,0,0,0-2.212-.671,3.937,3.937,0,0,0-1.541.274,11.61,11.61,0,0,0-1.094.522V11.021a11.5,11.5,0,0,1-1.566.3,16.038,16.038,0,0,1-2.212.149,11.693,11.693,0,0,1-1.964-.149,3.345,3.345,0,0,1-1.467-.6,2.87,2.87,0,0,1-.92-1.218,5.274,5.274,0,0,1-.323-2.013V-7.523A3.592,3.592,0,0,1,86.5-9.66a6.46,6.46,0,0,1,1.566-1.491,14.313,14.313,0,0,1,4.2-1.939A18.323,18.323,0,0,1,97.514-13.836Zm55.48,12.478a14.972,14.972,0,0,1-.945,5.493,11.135,11.135,0,0,1-2.66,4.052,11.311,11.311,0,0,1-4.1,2.486,15.851,15.851,0,0,1-5.319.845,15.051,15.051,0,0,1-5.319-.895,11.706,11.706,0,0,1-4.1-2.56,11.422,11.422,0,0,1-2.66-4.052,14.484,14.484,0,0,1-.945-5.369,14.341,14.341,0,0,1,.945-5.319,11.422,11.422,0,0,1,2.66-4.052,11.706,11.706,0,0,1,4.1-2.56,15.052,15.052,0,0,1,5.319-.895,14.686,14.686,0,0,1,5.319.92,12.006,12.006,0,0,1,4.1,2.585,11.422,11.422,0,0,1,2.66,4.052A14.2,14.2,0,0,1,152.993-1.358Zm-17.4,0a7.858,7.858,0,0,0,1.168,4.648,3.791,3.791,0,0,0,3.256,1.616,3.647,3.647,0,0,0,3.206-1.641,8.147,8.147,0,0,0,1.119-4.623,7.887,7.887,0,0,0-1.143-4.6,3.727,3.727,0,0,0-3.231-1.616,3.727,3.727,0,0,0-3.231,1.616A7.887,7.887,0,0,0,135.594-1.358Z" transform="translate(-1.12 20.448)" fill="#fff"/>
</svg>
