<svg width="571" height="79" viewBox="0 0 571 79" fill="none" xmlns="http://www.w3.org/2000/svg">
<path d="M35.4459 17.3256H61.6493C64.1267 17.3256 66.2229 15.305 66.2229 12.8032V8.86175C66.2229 8.80663 66.1749 8.76189 66.1198 8.76174C31.3556 8.6658 34.8731 8.6659 33.7308 8.76203C14.7691 9.628 0 24.7345 0 43.0162C0 61.3941 14.7691 76.4044 33.7308 77.2704C34.8731 77.3665 31.1654 77.3666 66.1195 77.3666C66.1747 77.3666 66.2229 77.3218 66.2229 77.2666V73.2291C66.2229 70.7274 64.1267 68.803 61.6493 68.803H35.4459C20.6768 68.803 8.67091 57.2567 8.67091 43.0162C8.67091 28.8719 20.6768 17.3256 35.4459 17.3256Z" fill="white"/>
<path d="M251.221 73.2291C251.221 70.535 248.934 69.0917 246.742 69.0917H199.439C199.35 69.0917 199.306 68.9829 199.37 68.9202C213.619 54.9114 227.208 41.4773 238.653 30.583C238.719 30.5207 238.674 30.4114 238.583 30.4114H232.735C229.877 30.4114 227.018 31.5661 225.017 33.5867C222.349 36.2808 235.784 23.2912 191.763 65.4353C189.571 67.5522 188.428 70.4388 188.428 73.4216V77.2666C188.428 77.3218 188.473 77.3666 188.528 77.3666H251.121C251.176 77.3666 251.221 77.3218 251.221 77.2666V73.2291ZM188.428 12.1297C188.428 14.5352 190.429 16.5558 192.906 16.5558H251.121C251.176 16.5558 251.221 16.511 251.221 16.4558V12.4184C251.221 9.91666 249.029 8.76203 246.742 8.76203H188.528C188.473 8.76203 188.428 8.8068 188.428 8.86203V12.1297Z" fill="white"/>
<path d="M370.063 76.9817H373.203C373.258 76.9817 373.303 76.9371 373.303 76.882L373.493 8.86231C373.493 8.80697 373.448 8.76203 373.393 8.76203H368.538C366.633 8.76203 364.918 9.628 364.155 10.9751L329.653 69.0432C329.614 69.1085 329.52 69.1085 329.481 69.0432L294.979 10.9751C294.216 9.628 292.406 8.76203 290.596 8.76203H285.836C285.781 8.76203 285.736 8.80688 285.736 8.86217L285.831 76.8818C285.831 76.937 285.876 76.9817 285.931 76.9817H289.071C292.12 76.9817 294.597 74.9611 294.597 72.4594V27.594C294.597 27.4928 294.73 27.4556 294.783 27.5422L323.183 74.3838C325.66 78.425 333.569 78.3288 335.951 74.3838L364.351 27.5422C364.403 27.4556 364.536 27.4928 364.536 27.594V72.4594C364.536 74.9611 367.014 76.9817 370.063 76.9817Z" fill="white"/>
<path d="M475.013 43.0162C475.013 24.0609 459.005 8.76203 439.471 8.76203C419.938 8.76203 404.025 24.0609 404.025 43.0162C404.025 61.9714 419.938 77.3666 439.471 77.3666C459.005 77.3666 475.013 61.9714 475.013 43.0162ZM439.471 17.3256C454.24 17.3256 466.246 28.8719 466.246 43.0162C466.246 57.2567 454.24 68.803 439.471 68.803C424.702 68.803 412.696 57.2567 412.696 43.0162C412.696 28.8719 424.702 17.3256 439.471 17.3256Z" fill="white"/>
<path d="M571 58.0264C571 47.4423 562.138 38.7825 551.181 38.7825L546.518 38.6884C546.463 38.6872 546.417 38.7323 546.417 38.7883V42.92C546.417 45.3255 548.417 47.3461 550.895 47.3461C558.232 47.4423 562.234 52.9268 562.234 58.0264C562.234 63.7034 557.565 68.5144 551.753 68.7068H509.446C506.873 68.7068 504.872 70.7274 504.872 73.2291V77.1704C504.872 77.2256 504.903 77.2704 504.958 77.2704C510.55 77.2714 551.946 77.3661 552.515 77.2704C563.091 76.4044 571 68.1295 571 58.0264ZM523.834 17.2293C526.026 17.2293 524.501 17.2293 563.663 17.2293C566.141 17.2293 568.237 15.2087 568.237 12.8032V8.7658C568.237 8.71057 568.192 8.6658 568.137 8.6658H524.406C512.972 8.37715 503.92 17.2293 503.92 28.0059C503.92 38.5901 512.781 47.2498 523.834 47.2498H528.403C528.458 47.2498 528.503 47.2051 528.503 47.1498V43.2086C528.503 40.7069 526.407 38.6863 523.834 38.6863C517.641 38.6863 512.686 33.8753 512.686 28.0059C512.686 22.0403 517.641 17.3256 523.834 17.2293Z" fill="white"/>
<path fill-rule="evenodd" clip-rule="evenodd" d="M94.367 50.4367C94.4124 50.3525 94.5473 50.3588 94.563 50.4532C94.7819 51.7762 95.0795 53.0851 95.4542 54.3728C95.6635 55.136 96.0416 55.8423 96.5603 56.4394C97.0791 57.0365 97.7253 57.5092 98.4511 57.8225C99.9597 58.5014 101.527 58.4819 103.019 57.7716C107.411 55.6788 111.595 53.1747 115.517 50.2926C106.644 57.1289 78.0751 80.6814 94.367 50.4367ZM104.695 50.2974C104.801 50.3194 104.801 50.4712 104.695 50.4932L104.242 50.5871C104.137 50.6074 104.04 50.6587 103.965 50.7343C103.889 50.8099 103.838 50.9064 103.818 51.0114L103.725 51.4628C103.703 51.5692 103.551 51.5692 103.529 51.4629L103.436 51.0114C103.415 50.9064 103.364 50.8098 103.289 50.7342C103.213 50.6586 103.117 50.6073 103.012 50.5871L102.559 50.4932C102.453 50.4712 102.453 50.3194 102.559 50.2974L103.012 50.2035C103.117 50.1833 103.213 50.1321 103.289 50.0565C103.364 49.9808 103.415 49.8842 103.436 49.7792L103.529 49.3273C103.551 49.2209 103.703 49.221 103.725 49.3274L103.818 49.7792C103.838 49.8842 103.889 49.9807 103.965 50.0564C104.04 50.132 104.137 50.1832 104.242 50.2035L104.695 50.2974ZM122.728 46.9247C122.834 46.9467 122.834 47.0986 122.728 47.1206L122.099 47.2502C121.975 47.2745 121.861 47.3353 121.771 47.425C121.682 47.5146 121.621 47.629 121.597 47.7535L121.467 48.3819C121.445 48.4883 121.293 48.4883 121.271 48.3819L121.142 47.7535C121.118 47.6291 121.057 47.5147 120.968 47.425C120.878 47.3354 120.764 47.2745 120.64 47.2502L120.012 47.1206C119.905 47.0986 119.905 46.9467 120.012 46.9247L120.64 46.7945C120.764 46.7703 120.878 46.7094 120.968 46.6197C121.057 46.5301 121.118 46.4157 121.142 46.2913L121.271 45.6629C121.293 45.5565 121.445 45.5564 121.467 45.6628L121.597 46.2913C121.621 46.4158 121.682 46.5302 121.771 46.6198C121.861 46.7095 121.975 46.7703 122.099 46.7945L122.728 46.9247ZM114.084 35.2009C114.19 35.2229 114.19 35.3747 114.084 35.3967L113.24 35.5713C113.092 35.6001 112.955 35.6727 112.848 35.7798C112.741 35.8868 112.669 36.0235 112.64 36.1722L112.465 37.0165C112.443 37.1228 112.291 37.1228 112.269 37.0164L112.095 36.1722C112.066 36.0238 111.993 35.8875 111.886 35.7805C111.779 35.6735 111.643 35.6007 111.495 35.5713L110.652 35.3967C110.545 35.3747 110.545 35.2229 110.652 35.2009L111.495 35.0257C111.643 34.997 111.78 34.9245 111.887 34.8174C111.994 34.7103 112.066 34.5736 112.095 34.4248L112.269 33.5811C112.291 33.4748 112.443 33.4747 112.465 33.5811L112.64 34.4248C112.668 34.5736 112.741 34.7104 112.848 34.8175C112.955 34.9246 113.091 34.9971 113.24 35.0257L114.084 35.2009ZM144.859 21.1477C144.965 21.1697 144.965 21.3215 144.859 21.3435L143.474 21.6308C143.264 21.6713 143.071 21.7737 142.92 21.925C142.769 22.0763 142.667 22.2694 142.626 22.4795L142.339 23.8657C142.317 23.972 142.166 23.972 142.144 23.8657L141.857 22.4795C141.816 22.2693 141.714 22.0762 141.563 21.9249C141.412 21.7736 141.219 21.6712 141.009 21.6308L139.626 21.3436C139.52 21.3216 139.52 21.1698 139.626 21.1478L141.011 20.8611C141.221 20.8207 141.414 20.7182 141.565 20.567C141.716 20.4157 141.818 20.2226 141.858 20.0125L142.145 18.6269C142.167 18.5206 142.319 18.5206 142.341 18.6269L142.628 20.0125C142.668 20.2225 142.771 20.4156 142.922 20.5668C143.073 20.7181 143.266 20.8206 143.475 20.8611L144.859 21.1477ZM126.521 21.1766C126.627 21.1986 126.627 21.3504 126.521 21.3725L125.678 21.5477C125.529 21.5764 125.393 21.649 125.286 21.7561C125.179 21.8632 125.106 21.9998 125.078 22.1485L124.903 22.9923C124.881 23.0986 124.729 23.0986 124.707 22.9922L124.533 22.1485C124.503 22.0001 124.431 21.8638 124.324 21.7568C124.217 21.6498 124.081 21.5771 123.933 21.5477L123.089 21.3725C122.983 21.3504 122.983 21.1986 123.089 21.1766L123.933 21.002C124.081 20.9726 124.217 20.8998 124.324 20.7928C124.431 20.6859 124.503 20.5496 124.533 20.4012L124.707 19.5569C124.729 19.4506 124.881 19.4505 124.903 19.5568L125.078 20.4012C125.106 20.5498 125.179 20.6865 125.286 20.7936C125.393 20.9007 125.529 20.9732 125.678 21.002L126.521 21.1766ZM151.09 19.6976C144.823 13.9413 136.625 10.7533 128.121 10.7658C109.331 10.7658 94.0989 26.0174 94.0989 44.8316C94.0983 46.604 94.235 48.3737 94.508 50.1248C94.5115 50.1472 94.5068 50.1709 94.4957 50.1906C80.7029 74.4794 85.989 82.2822 104.392 69.2426C115.708 61.2239 131.984 45.3229 151.83 20.5258C151.862 20.4857 151.859 20.4273 151.822 20.3914C151.583 20.1576 151.339 19.9255 151.09 19.6976Z" fill="white"/>
<path fill-rule="evenodd" clip-rule="evenodd" d="M146.094 48.1274C146.2 48.1494 146.2 48.3012 146.094 48.3232L144.337 48.687C144.086 48.7359 143.855 48.859 143.673 49.0405C143.492 49.2219 143.369 49.4535 143.32 49.7054L142.957 51.4626C142.935 51.5689 142.783 51.5689 142.761 51.4626L142.398 49.7054C142.349 49.4535 142.227 49.2219 142.045 49.0405C141.864 48.859 141.633 48.7359 141.381 48.687L139.625 48.3232C139.518 48.3012 139.518 48.1494 139.624 48.1274L141.381 47.7629C141.633 47.7141 141.864 47.591 142.045 47.4095C142.227 47.2281 142.35 46.9965 142.398 46.7445L142.761 44.9873C142.783 44.881 142.935 44.881 142.957 44.9873L143.32 46.7445C143.369 46.9965 143.492 47.2281 143.673 47.4095C143.855 47.591 144.086 47.7141 144.337 47.7629L146.094 48.1274ZM125.543 70.5316C125.65 70.5536 125.65 70.7054 125.543 70.7274L124.994 70.8415C124.879 70.8644 124.773 70.921 124.69 71.0041C124.607 71.0871 124.551 71.193 124.528 71.3082L124.414 71.8577C124.392 71.964 124.241 71.9641 124.219 71.8577L124.105 71.3082C124.082 71.193 124.025 71.0871 123.942 71.0041C123.859 70.921 123.754 70.8644 123.639 70.8415L123.089 70.7274C122.983 70.7054 122.983 70.5536 123.089 70.5316L123.639 70.418C123.754 70.3951 123.859 70.3385 123.942 70.2554C124.025 70.1723 124.082 70.0665 124.105 69.9513L124.219 69.4017C124.241 69.2954 124.392 69.2954 124.414 69.4018L124.528 69.9513C124.551 70.0665 124.607 70.1723 124.69 70.2554C124.773 70.3385 124.879 70.3951 124.994 70.418L125.543 70.5316ZM155.801 61.2033C155.907 61.2253 155.907 61.3771 155.801 61.3992L155.251 61.5133C155.136 61.5362 155.031 61.5928 154.948 61.6759C154.865 61.7589 154.808 61.8648 154.785 61.98L154.671 62.5333C154.649 62.6395 154.497 62.6397 154.475 62.5336L154.359 61.98C154.337 61.8645 154.28 61.7582 154.197 61.675C154.114 61.5918 154.008 61.5355 153.893 61.5133L153.343 61.3992C153.237 61.3772 153.237 61.2254 153.343 61.2034L153.893 61.0898C154.008 61.0669 154.114 61.0103 154.197 60.9272C154.279 60.8442 154.336 60.7383 154.359 60.6231L154.472 60.0725C154.494 59.9662 154.646 59.966 154.668 60.0723L154.783 60.6222C154.806 60.7375 154.862 60.8433 154.945 60.9264C155.028 61.0095 155.134 61.0661 155.249 61.089L155.801 61.2033ZM111.964 74.8203C111.965 74.8211 111.966 74.8219 111.967 74.8226C116.929 77.5083 122.483 78.9105 128.124 78.9018C146.913 78.9018 162.146 63.6501 162.146 44.8359C162.158 36.629 159.199 28.6957 153.817 22.5058C153.614 22.279 153.478 22.0008 153.422 21.7016C153.366 21.4023 153.393 21.0934 153.5 20.8086L155.619 14.8978C147.623 32.5223 126.774 55.3607 111.303 69.291C110.898 69.6561 110.587 70.1133 110.395 70.624C110.204 71.1348 110.137 71.6841 110.202 72.2259C110.266 72.7677 110.46 73.286 110.766 73.7373C111.072 74.188 111.481 74.5586 111.96 74.818C111.961 74.8187 111.962 74.8194 111.964 74.8203Z" fill="white"/>
<path fill-rule="evenodd" clip-rule="evenodd" d="M163.272 3.85367C163.545 4.04148 163.756 4.30609 163.878 4.61403C164.001 4.92197 164.03 5.2594 163.961 5.58366C163.892 5.90791 163.728 6.20442 163.491 6.43568C163.254 6.66694 162.953 6.82256 162.628 6.88287C162.302 6.94318 161.966 6.90546 161.662 6.77448C161.358 6.6435 161.099 6.42516 160.919 6.14705C160.739 5.86894 160.645 5.54357 160.65 5.21208C160.654 4.88059 160.757 4.55788 160.944 4.28477C161.196 3.91882 161.583 3.66788 162.019 3.58705C162.455 3.50622 162.906 3.60211 163.272 3.85367ZM158.441 10.187C158.393 10.2573 158.359 10.3364 158.341 10.4198C158.324 10.5031 158.323 10.5891 158.339 10.6729C158.354 10.7566 158.386 10.8364 158.433 10.9077C158.48 10.9789 158.54 11.0403 158.61 11.0883L158.634 11.1035C158.777 11.1976 158.952 11.2308 159.12 11.1957C159.288 11.1606 159.435 11.0601 159.529 10.9164C159.623 10.7727 159.656 10.5975 159.621 10.4294C159.586 10.2612 159.486 10.1139 159.342 10.0198L159.326 10.0088C159.184 9.91672 159.012 9.8838 158.847 9.91712C158.681 9.95044 158.536 10.0473 158.441 10.187ZM159.565 7.68354C159.488 7.79571 159.434 7.92205 159.405 8.05531C159.377 8.18858 159.375 8.32616 159.4 8.46017C159.424 8.59418 159.475 8.72198 159.549 8.83627C159.623 8.95056 159.719 9.04909 159.832 9.12622L159.87 9.15083C160.099 9.29879 160.378 9.34995 160.644 9.29319C160.911 9.23642 161.145 9.07632 161.295 8.84778C161.444 8.61924 161.497 8.34079 161.443 8.07311C161.388 7.80543 161.23 7.57023 161.003 7.41877L160.976 7.40095C160.75 7.25535 160.477 7.20343 160.213 7.25618C159.95 7.30893 159.718 7.4622 159.565 7.68354ZM155.429 13.8353L156.747 14.7425C157.149 15.0174 157.643 15.1218 158.122 15.0331C158.6 14.9444 159.024 14.6697 159.301 14.2689C159.329 14.2258 159.389 14.2198 159.424 14.2572C160.362 15.2539 161.141 16.3896 161.732 17.6244C161.736 17.6329 161.742 17.641 161.748 17.648C162.438 18.4153 162.978 18.311 163.369 17.3351C163.983 15.2577 164.117 12.9707 163.274 10.1334C163.239 10.0181 163.355 9.9692 163.399 10.0807C163.466 10.2465 163.527 10.4123 163.587 10.5781C163.613 10.6513 163.71 10.6668 163.759 10.6062C166.968 6.6208 167.593 3.11813 165.634 0.0982066C165.618 0.0737247 165.591 0.0572069 165.562 0.0536736C161.883 -0.39507 158.761 1.97001 156.196 7.14891L156.568 6.0595C156.595 5.98259 156.521 5.9088 156.443 5.93228C151.293 7.48645 149.246 8.93038 150.781 10.1012C150.796 10.1126 150.815 10.1199 150.834 10.1214C152.24 10.237 153.618 10.5757 154.917 11.1247C154.977 11.1502 154.997 11.2261 154.959 11.2797C154.958 11.281 154.957 11.2822 154.956 11.2834C154.683 11.6854 154.58 12.1789 154.669 12.6568C154.757 13.1346 155.031 13.5582 155.429 13.8353Z" fill="white"/>
</svg>
